<?xml version="1.0" standalone="no"?>
<!DOCTYPE svg PUBLIC "-//W3C//DTD SVG 20010904//EN"
 "http://www.w3.org/TR/2001/REC-SVG-20010904/DTD/svg10.dtd">
<svg version="1.0" xmlns="http://www.w3.org/2000/svg"
 width="348.000000pt" height="348.000000pt" viewBox="0 0 348.000000 348.000000"
 preserveAspectRatio="xMidYMid meet">
<metadata>
Created by potrace 1.16, written by Peter Selinger 2001-2019
</metadata>
<g transform="translate(0.000000,348.000000) scale(0.100000,-0.100000)"
fill="#000000" stroke="none">
<path d="M2965 3358 c-27 -16 -153 -90 -280 -163 -767 -442 -931 -537 -939
-545 -5 -5 22 -62 63 -132 39 -68 71 -128 71 -133 0 -6 -10 -16 -22 -24 -19
-12 -23 -11 -33 3 -25 34 -152 11 -227 -41 -22 -15 -56 -47 -74 -71 -27 -36
-32 -48 -23 -64 8 -15 7 -23 -8 -33 -10 -8 -22 -13 -28 -11 -5 1 -38 52 -73
112 -34 60 -67 116 -72 124 -8 13 -18 11 -67 -15 -45 -24 -627 -359 -1170
-673 -50 -28 -63 -41 -63 -60 0 -31 348 -629 369 -635 9 -2 110 51 226 118
773 447 1048 605 1051 602 2 -1 15 -20 29 -41 l26 -39 -58 -50 c-130 -113
-246 -244 -358 -407 -32 -47 -78 -106 -102 -132 -27 -29 -43 -57 -43 -72 0
-37 38 -95 67 -102 51 -13 201 34 402 128 74 34 439 224 483 252 13 8 22 6 38
-9 17 -15 20 -26 14 -61 -12 -83 48 -154 132 -154 83 0 145 75 129 156 -7 40
-62 104 -89 104 -8 0 -22 13 -31 30 -18 34 -35 19 170 146 307 189 551 366
612 442 56 70 59 80 32 129 -28 52 -53 61 -123 44 -28 -6 -98 -16 -156 -21
-236 -22 -428 -62 -579 -120 -41 -16 -77 -27 -80 -25 -15 9 -45 79 -36 82 6 2
291 167 635 367 450 261 626 368 628 382 3 19 -340 622 -362 636 -17 12 -27 9
-81 -24z m245 -297 c94 -162 170 -300 168 -308 -2 -7 -284 -175 -627 -374
-584 -337 -626 -360 -638 -342 -8 10 -41 66 -74 126 -34 59 -65 107 -70 107
-6 0 -28 -10 -50 -22 -31 -18 -38 -27 -34 -43 4 -11 9 -31 12 -45 4 -20 2 -22
-6 -10 -9 12 -11 13 -11 1 0 -8 -3 -11 -7 -8 -10 10 -43 -24 -36 -37 3 -6 0
-5 -8 2 -11 10 -17 8 -32 -10 -10 -13 -15 -16 -11 -8 7 13 5 13 -9 1 -9 -7
-14 -18 -10 -25 3 -6 0 -6 -8 2 -11 10 -17 8 -34 -11 -11 -13 -18 -18 -15 -12
3 6 -3 2 -12 -8 -11 -11 -18 -14 -18 -7 0 7 -8 2 -19 -11 -18 -22 -19 -22 -29
-3 -27 47 -27 47 -70 25 -22 -11 -43 -25 -46 -30 -3 -5 26 -64 64 -132 39 -67
69 -126 68 -130 -2 -5 -284 -171 -627 -369 -503 -291 -627 -359 -636 -348 -7
7 -87 143 -180 302 -114 197 -165 294 -159 303 10 15 1233 723 1249 723 5 0
42 -56 80 -125 39 -68 75 -125 82 -125 6 0 28 10 48 21 26 16 34 26 29 38 -17
41 -14 50 30 93 54 54 113 85 180 94 43 6 51 4 66 -16 l17 -22 41 23 c23 13
42 28 42 34 0 5 -32 65 -71 133 -39 69 -67 128 -62 133 20 20 1239 719 1250
717 7 -2 89 -135 183 -297z m-1126 -1054 c29 -29 59 -70 67 -90 10 -28 17 -36
29 -31 46 19 213 75 265 89 115 30 333 61 576 82 56 5 57 4 73 -28 9 -18 16
-38 16 -46 0 -59 -335 -309 -727 -543 -68 -40 -123 -74 -123 -75 0 -2 8 -23
19 -47 14 -33 26 -46 55 -56 69 -25 89 -116 37 -174 -25 -28 -36 -33 -74 -33
-73 0 -126 67 -107 135 8 28 5 37 -17 66 -14 19 -31 34 -38 34 -7 0 -42 -16
-77 -36 -139 -80 -509 -263 -612 -303 -130 -51 -222 -65 -232 -35 -4 11 -13
26 -21 36 -13 14 -12 20 0 45 8 15 27 39 42 53 15 14 49 57 76 97 89 132 204
267 324 381 108 103 117 114 103 130 -29 32 -59 103 -65 152 -5 43 -3 50 18
63 54 35 324 187 332 187 4 0 32 -24 61 -53z"/>
<path d="M2882 3228 l-122 -70 31 -57 c51 -90 41 -89 169 -15 63 37 119 70
123 74 8 7 -62 141 -73 139 -3 0 -60 -32 -128 -71z"/>
<path d="M2575 3050 c-66 -38 -120 -73 -120 -77 0 -16 70 -133 79 -133 16 0
246 140 246 150 0 12 -71 130 -79 130 -3 0 -60 -32 -126 -70z"/>
<path d="M2998 3033 c-65 -37 -118 -71 -118 -76 0 -5 16 -38 36 -73 l36 -65
37 22 c20 12 75 44 124 71 48 28 87 55 87 62 -1 16 -64 119 -75 122 -6 2 -63
-27 -127 -63z"/>
<path d="M2265 2879 c-66 -38 -124 -70 -128 -72 -6 -2 58 -128 79 -156 3 -3
200 112 252 147 10 7 3 25 -28 80 -23 40 -45 72 -48 71 -4 -1 -61 -32 -127
-70z"/>
<path d="M2683 2872 c-73 -43 -133 -81 -133 -85 0 -14 85 -157 94 -157 4 0 68
35 142 77 l133 77 -28 51 c-59 103 -66 115 -71 114 -3 0 -64 -35 -137 -77z"/>
<path d="M3121 2845 c-62 -35 -118 -68 -123 -73 -7 -7 3 -34 28 -79 20 -37 39
-70 40 -71 3 -5 254 139 254 145 0 8 -71 133 -79 137 -4 3 -58 -24 -120 -59z"/>
<path d="M1953 2704 c-73 -41 -133 -79 -133 -83 0 -16 83 -151 92 -151 6 0 68
34 139 76 l129 76 -32 57 c-65 115 -44 112 -195 25z"/>
<path d="M2370 2680 c-69 -38 -124 -75 -122 -81 2 -7 21 -43 44 -81 38 -65 42
-68 62 -55 11 7 69 42 129 77 59 35 107 68 107 72 0 17 -75 138 -85 138 -5 -1
-66 -32 -135 -70z"/>
<path d="M2792 2659 l-122 -71 37 -66 c20 -37 40 -72 45 -79 6 -8 45 11 133
64 69 41 125 79 125 84 0 18 -73 139 -83 139 -7 0 -67 -32 -135 -71z"/>
<path d="M2058 2507 c-70 -40 -127 -76 -125 -82 5 -21 82 -155 89 -155 13 0
268 154 268 162 0 15 -85 148 -95 148 -5 -1 -67 -33 -137 -73z"/>
<path d="M2485 2488 c-71 -39 -131 -72 -133 -73 -2 -2 85 -154 94 -164 3 -4
242 134 258 149 8 8 -71 160 -83 160 -3 0 -64 -32 -136 -72z"/>
<path d="M2185 2319 c-66 -38 -126 -73 -134 -78 -10 -6 -3 -26 34 -90 26 -44
51 -81 56 -81 14 0 264 150 264 158 0 13 -86 162 -93 161 -4 0 -61 -32 -127
-70z"/>
<path d="M1148 2242 c-71 -42 -128 -81 -128 -87 1 -5 20 -42 43 -81 l42 -72
128 73 c71 40 132 76 137 81 8 9 -72 157 -88 161 -4 1 -64 -32 -134 -75z"/>
<path d="M845 2058 c-66 -39 -122 -73 -125 -75 -7 -7 63 -135 77 -140 13 -5
262 127 263 140 0 12 -81 147 -89 147 -3 0 -60 -32 -126 -72z"/>
<path d="M1265 2049 c-66 -39 -124 -74 -129 -79 -8 -8 71 -160 83 -160 8 0
254 140 264 150 10 9 -73 159 -88 160 -5 0 -64 -32 -130 -71z"/>
<path d="M536 1875 c-61 -36 -114 -69 -119 -74 -7 -7 39 -100 69 -140 5 -6
254 140 254 149 0 17 -73 130 -84 130 -6 0 -60 -29 -120 -65z"/>
<path d="M955 1864 c-66 -41 -120 -80 -120 -87 0 -17 68 -137 78 -137 8 0 214
111 249 135 16 10 13 18 -28 88 -24 42 -48 77 -52 76 -4 0 -61 -34 -127 -75z"/>
<path d="M1373 1852 c-73 -42 -131 -81 -130 -87 5 -25 83 -155 93 -155 15 0
263 143 265 153 2 10 -84 167 -91 167 -3 0 -65 -35 -137 -78z"/>
<path d="M640 1690 c-74 -44 -134 -85 -132 -92 6 -24 85 -148 93 -148 10 0
248 136 263 150 4 4 -8 37 -27 72 -62 110 -44 108 -197 18z"/>
<path d="M290 1731 c-25 -16 -78 -47 -118 -70 l-72 -42 34 -62 c19 -34 40 -63
45 -65 10 -3 251 126 251 135 0 14 -76 133 -85 132 -5 0 -30 -13 -55 -28z"/>
<path d="M1075 1674 c-66 -40 -124 -75 -130 -77 -8 -4 53 -135 74 -159 5 -6
247 119 271 139 5 5 -57 123 -80 152 -14 18 -20 15 -135 -55z"/>
<path d="M342 1499 c-67 -39 -122 -75 -122 -80 0 -13 60 -118 71 -124 6 -4
227 112 247 130 7 6 -8 40 -41 92 l-32 52 -123 -70z"/>
<path d="M757 1484 l-127 -75 36 -67 c21 -37 40 -71 44 -75 4 -5 66 25 138 65
l130 73 -38 69 c-21 37 -42 72 -46 76 -5 5 -63 -22 -137 -66z"/>
<path d="M455 1305 c-60 -35 -114 -66 -120 -68 -12 -5 54 -136 72 -144 8 -3
229 113 251 133 7 5 -73 144 -83 144 -5 0 -59 -29 -120 -65z"/>
<path d="M2936 2005 c-223 -79 -643 -297 -1110 -577 -177 -106 -518 -351 -580
-417 -50 -52 -18 -34 52 29 287 260 1268 827 1660 960 48 16 78 29 67 29 -11
0 -51 -11 -89 -24z"/>
<path d="M1860 1935 c-80 -47 -149 -91 -154 -98 -10 -16 15 -109 43 -154 l20
-32 95 63 c52 35 135 84 185 110 50 26 91 49 91 52 0 25 -103 144 -125 144 -5
0 -75 -39 -155 -85z"/>
<path d="M2650 1978 c-510 -85 -904 -320 -1221 -730 -33 -43 -57 -78 -53 -78
3 0 36 22 73 49 303 224 917 576 1321 758 23 11 21 12 -20 11 -25 0 -70 -5
-100 -10z"/>
<path d="M2957 1960 c-123 -42 -407 -176 -619 -293 l-178 -98 40 -80 c22 -43
45 -79 52 -79 13 0 216 123 392 237 226 148 426 302 426 329 0 20 -13 18 -113
-16z"/>
<path d="M2097 1518 c-31 -17 -57 -36 -57 -43 0 -11 96 -152 143 -210 24 -28
25 -29 50 -12 l27 17 -20 50 c-11 28 -20 60 -20 70 0 22 -48 148 -59 154 -4 3
-32 -9 -64 -26z"/>
<path d="M1870 1397 c-162 -99 -292 -186 -420 -280 -98 -73 -200 -164 -200
-178 0 -46 312 89 748 323 61 34 112 64 112 68 0 10 -90 144 -99 147 -3 1 -67
-35 -141 -80z"/>
<path d="M2248 1243 c-99 -62 -34 -209 76 -173 45 14 66 44 66 90 0 68 -86
118 -142 83z"/>
<path d="M2687 1161 c-54 -67 -154 -151 -242 -203 -84 -51 -173 -84 -295 -112
-129 -29 -116 -41 45 -40 88 0 123 5 175 23 147 52 280 164 343 290 59 117 49
134 -26 42z m-3 -53 c-92 -161 -302 -290 -469 -287 l-50 0 85 28 c148 48 280
125 375 219 49 48 73 64 59 40z"/>
<path d="M2814 1050 c-91 -109 -211 -202 -349 -270 -114 -57 -279 -110 -344
-110 -14 0 -33 -4 -41 -10 -27 -17 20 -25 155 -25 101 0 142 4 185 19 189 65
357 208 434 369 56 118 44 126 -40 27z m-29 -101 c-119 -174 -350 -300 -545
-298 -63 0 -58 3 75 44 168 52 318 141 439 264 39 39 72 68 75 66 2 -3 -17
-37 -44 -76z"/>
<path d="M2998 1013 c-192 -250 -520 -449 -828 -502 -111 -20 -120 -22 -120
-35 0 -32 245 -36 365 -6 281 68 507 254 619 508 25 57 27 82 7 82 -4 0 -23
-21 -43 -47z m-39 -120 c-104 -173 -279 -310 -484 -378 -61 -21 -105 -28 -185
-31 l-105 -4 55 16 c186 51 323 109 440 184 81 53 221 170 257 215 37 46 50
45 22 -2z"/>
</g>
</svg>
